
        <svg xmlns="http://www.w3.org/2000/svg" xmlns:xlink="http://www.w3.org/1999/xlink" version="1.1" width="3230.769230769231" height="961.8437294103112" viewBox="0 0 3230.769230769231 961.8437294103112">
			
			<g transform="scale(11.538461538461538) translate(10, 10)">
				<defs id="SvgjsDefs1011"/><g id="SvgjsG1012" featureKey="nameFeature-0" transform="matrix(1.668591856956482,0,0,1.668591856956482,0,-20.023099457295565)" fill="#000"><path d="M4.16 37.52 l1.76 0 l1.4 -3.36 l10.44 0.04 l2.56 5.8 l7.36 -0.04 l-12.6 -27.96 l-2.56 0 l-12.52 27.96 l7.8 0 l1.36 -3.2 l7.96 0 l-0.6 -1.36 l-8.24 0 l-1.28 3.16 l-4.76 0 l11.08 -25.2 l0.96 0 l11.12 25.2 l-4.24 0 l-2.56 -5.72 l-12.4 0 z M8.92 30.48 l4.88 -11.64 l8.2 18.64 l1.64 0 l-9.84 -21.92 l-7.2 16.16 l11.6 0 l-4.4 -9.72 l-3.04 7.32 l1.56 0 l1.48 -3.64 l2.28 4.8 l-7.16 0 z M54.260000000000005 16.04 c-2.4 -2.52 -5.48 -4 -8.48 -4 l-11.72 0 l0 1.44 l11.72 0.04 c1.88 0 3.68 0.6 5.4 1.76 c3.36 2.36 5.6 6.6 5.6 10.72 c0 2.16 -0.48 4.16 -1.48 6.04 c-2 3.72 -6.04 6.44 -9.52 6.44 l-10.28 0 l0 -22.44 l9.96 0.04 c1.44 0 2.84 0.44 4.16 1.36 c2.68 1.8 4.44 5.24 4.44 8.56 c0 2.44 -1.04 4.96 -2.92 6.92 c-1.76 1.76 -3.88 2.88 -5.64 2.88 l-4.56 0 l0.04 -15.8 l-1.4 0 l-0.04 16.52 l0 0.72 l5.96 0 c2.2 0 4.76 -1.24 6.72 -3.32 c2.12 -2.28 3.28 -5.08 3.28 -7.92 c0 -2.88 -1.12 -5.76 -3.16 -8 c-2.2 -2.2 -4.6 -3.4 -6.88 -3.4 l-11.4 0 l0 25.36 l11.72 0 c2.88 0 6 -1.48 8.36 -4 c2.6 -2.68 4.04 -6.24 4.04 -9.96 s-1.36 -7.24 -3.92 -9.96 z M45.34 34.519999999999996 c1.12 0 2.28 -0.44 3.52 -1.28 c2.44 -1.72 4 -4.6 4 -7.28 c0 -1.44 -0.36 -2.84 -1.04 -4.2 c-1.4 -2.68 -3.92 -4.36 -6.48 -4.36 l-8.6 0.04 l0.04 19.88 l1.44 0 l0 -18.48 l7.12 -0.04 c0.92 0 1.88 0.36 2.88 1.04 c2.04 1.44 3.2 3.68 3.2 6.12 c0 1.64 -0.76 3.48 -2 4.88 s-2.76 2.24 -4.08 2.24 l-2.84 0 l0 1.44 l2.84 0 z M83.76000000000002 38.56 l-4.6 0 l-5.52 -10.28 l-3.72 0.04 l0 10.24 l-4.04 0 l0 -26.56 l-1.44 0 l0 28 l6.96 0 l0 -10.28 l1.4 0 l5.48 10.28 l7.88 0 l-5.52 -10.32 l-1.32 0.52 z M74.24000000000001 13.440000000000001 c5.8 0 9.08 2.6 9.08 7.36 c0 4.32 -2.6 6.96 -7.12 7.44 l-1.08 0.12 l5 9.24 l1.64 0 l-4.36 -8.12 c4.8 -0.84 7.36 -3.76 7.36 -8.68 c0 -1.64 -0.36 -3.12 -1.04 -4.44 c-1.6 -2.84 -4.88 -4.36 -9.48 -4.36 l-7.08 0 l0 25.56 l1.44 0 l0 -24.12 l5.64 0 z M73.92000000000002 27.04 c5.48 0 8.08 -1.88 8.08 -6.04 c0 -3.96 -2.72 -6.2 -7.08 -6.2 l-5.04 0 l0 4.2 l4.6 0 c2.12 0 3.2 0.6 3.2 1.8 c0 1.4 -1.32 2.08 -4 2.08 l-2.32 0 l0 -2.48 l-1.48 0 l0 3.92 l3.8 0 c3.56 0 5.44 -1.24 5.44 -3.52 c0 -0.72 -0.16 -1.28 -0.52 -1.72 c-0.68 -1 -2.04 -1.48 -4.12 -1.48 l-3.12 0 l0 -1.36 l3.56 0 c3.56 0 5.64 1.72 5.64 4.76 c0 3.16 -2.12 4.64 -6.64 4.64 l-4 0 l0 1.4 l4 0 z M94.30000000000001 12 l4.2 0 l0 25.32 l-1.44 0 l0 -23.88 l-1.32 0 l0 25.12 l4.04 0 l0 -26.56 l1.44 0 l0 28 l-6.92 0 l0 -28 z M128.08 28.6 l-16.36 -16.6 l-2 0 l19.8 20.12 l0 -17.32 l-1.44 0 l0 13.8 z M126.76 25.4 l0 -12 l4.08 0 l0 25.16 l-0.68 0 l-0.16 -0.16 l-18.32 -18.56 l0 20.16 l4.2 0 l0 -11.8 l-1.48 -1.52 l0 11.88 l-1.28 0 l0 -15.2 l16.6 16.64 l2.56 0 l0 -28 l-6.96 0 l0 11.84 z M110.36 40 l0 -23.4 l19.16 19.44 l0 -2.12 l-20.56 -20.76 l0 26.84 l1.4 0 z M137.62 12.079999999999998 l1.44 0 l0 26.48 l15.32 0 l0 -4 l-11.28 0 l0 -3.84 l1.44 0 l0 2.4 l11.28 0 l0 6.88 l-18.2 0 l0 -27.92 z M140.34 12.079999999999998 l15.28 0 l0 6.84 l-9.6 0 l0 -1.44 l8.16 0 l0 -3.96 l-12.4 0 l0 11.56 l9.32 0 l0 1.44 l-10.76 0 l0 -14.44 z M140.34 27.8 l12.16 0 l0 -4 l-9.4 0 l0 -9.08 l9.68 0 l0 1.44 l-8.24 0 l0 6.2 l9.4 0 l0 6.88 l-12.16 0 l0 6.64 l11.2 0 l0 1.44 l-12.64 0 l0 -9.52 z"/></g><g id="SvgjsG1013" featureKey="sloganFeature-0" transform="matrix(0.4385438859462738,0,0,0.4385438859462738,49.871419131423984,54.50325987854657)" fill="#000"><path d="M10.801 5.888999999999999 l3.1152 0 l-5.2148 14.111 l-3.2227 0 l-5.1855 -14.111 l3.1055 0 l3.7012 10.693 z M26.4795203125 20 l0 -14.111 l2.9297 0 l0 14.111 l-2.9297 0 z M50.947221875 20 l-3.6719 -6.2109 l-0.84961 0 l0 6.2109 l-2.9297 0 l0 -14.111 l5.1172 0 c3.1934 0 4.541 1.8848 4.541 4.2188 c0 1.8945 -1.0742 3.125 -2.9883 3.5352 l4.248 6.3574 l-3.4668 0 z M46.425821875 8.32 l0 3.3691 l1.7285 0 c1.5625 0 2.1973 -0.66406 2.1973 -1.6797 c0 -1.0059 -0.63477 -1.6895 -2.1973 -1.6895 l-1.7285 0 z M75.1906640625 5.888999999999999 l0 2.5781 l-3.3496 0 l0 11.533 l-2.9004 0 l0 -11.533 l-3.3691 0 l0 -2.5781 l9.6191 0 z M93.076190625 20.19531 c-3.0957 0 -5.5176 -1.582 -5.5176 -5.1367 l0 -9.1699 l2.9297 0 l0 8.7695 c0 2.1484 1.1426 2.9492 2.5879 2.9492 c1.4551 0 2.6074 -0.81055 2.6074 -2.9492 l0 -8.7695 l2.9297 0 l0 9.1699 c0 3.5547 -2.4316 5.1367 -5.5371 5.1367 z M121.8608203125 20 l-1.0254 -2.9102 l-5.9277 0 l-1.0254 2.9102 l-2.998 0 l5.1953 -14.111 l3.584 0 l5.1953 14.111 l-2.998 0 z M115.7666203125 14.6387 l4.209 0 l-2.0996 -5.9863 z M140.351603125 17.4121 l4.4238 0 l0 2.5879 l-7.3535 0 l0 -14.111 l2.9297 0 l0 11.523 z M182.53953125 20 l-1.0254 -2.9102 l-5.9277 0 l-1.0254 2.9102 l-2.998 0 l5.1953 -14.111 l3.584 0 l5.1953 14.111 l-2.998 0 z M176.44533125 14.6387 l4.209 0 l-2.0996 -5.9863 z M202.7881140625 20.19531 c-3.0273 0 -5.3906 -1.4551 -5.8203 -4.1016 l3.0273 -0.69336 c0.19531 1.582 1.3574 2.4023 2.9102 2.4023 c1.1914 0 2.1387 -0.52734 2.1289 -1.7188 c-0.0097656 -1.3281 -1.5723 -1.748 -3.291 -2.2754 c-2.0703 -0.64453 -4.2871 -1.4063 -4.2871 -4.0039 c0 -2.627 2.1484 -4.1113 4.9805 -4.1113 c2.4805 0 4.9805 1.0059 5.5469 3.7109 l-2.832 0.70313 c-0.26367 -1.4063 -1.2109 -2.0215 -2.5391 -2.0215 c-1.1816 0 -2.1875 0.48828 -2.1875 1.6504 c0 1.084 1.3867 1.4453 2.9883 1.9238 c2.1289 0.64453 4.6484 1.4648 4.6484 4.2773 c0 2.998 -2.5098 4.2578 -5.2734 4.2578 z M225.898465625 20.19531 c-3.0273 0 -5.3906 -1.4551 -5.8203 -4.1016 l3.0273 -0.69336 c0.19531 1.582 1.3574 2.4023 2.9102 2.4023 c1.1914 0 2.1387 -0.52734 2.1289 -1.7188 c-0.0097656 -1.3281 -1.5723 -1.748 -3.291 -2.2754 c-2.0703 -0.64453 -4.2871 -1.4063 -4.2871 -4.0039 c0 -2.627 2.1484 -4.1113 4.9805 -4.1113 c2.4805 0 4.9805 1.0059 5.5469 3.7109 l-2.832 0.70313 c-0.26367 -1.4063 -1.2109 -2.0215 -2.5391 -2.0215 c-1.1816 0 -2.1875 0.48828 -2.1875 1.6504 c0 1.084 1.3867 1.4453 2.9883 1.9238 c2.1289 0.64453 4.6484 1.4648 4.6484 4.2773 c0 2.998 -2.5098 4.2578 -5.2734 4.2578 z M244.3213171875 20 l0 -14.111 l2.9297 0 l0 14.111 l-2.9297 0 z M266.02541875 20.19531 c-3.0273 0 -5.3906 -1.4551 -5.8203 -4.1016 l3.0273 -0.69336 c0.19531 1.582 1.3574 2.4023 2.9102 2.4023 c1.1914 0 2.1387 -0.52734 2.1289 -1.7188 c-0.0097656 -1.3281 -1.5723 -1.748 -3.291 -2.2754 c-2.0703 -0.64453 -4.2871 -1.4063 -4.2871 -4.0039 c0 -2.627 2.1484 -4.1113 4.9805 -4.1113 c2.4805 0 4.9805 1.0059 5.5469 3.7109 l-2.832 0.70313 c-0.26367 -1.4063 -1.2109 -2.0215 -2.5391 -2.0215 c-1.1816 0 -2.1875 0.48828 -2.1875 1.6504 c0 1.084 1.3867 1.4453 2.9883 1.9238 c2.1289 0.64453 4.6484 1.4648 4.6484 4.2773 c0 2.998 -2.5098 4.2578 -5.2734 4.2578 z M292.6320703125 5.888999999999999 l0 2.5781 l-3.3496 0 l0 11.533 l-2.9004 0 l0 -11.533 l-3.3691 0 l0 -2.5781 l9.6191 0 z M314.736796875 20 l-1.0254 -2.9102 l-5.9277 0 l-1.0254 2.9102 l-2.998 0 l5.1953 -14.111 l3.584 0 l5.1953 14.111 l-2.998 0 z M308.642596875 14.6387 l4.209 0 l-2.0996 -5.9863 z M339.9366796875 5.888999999999999 l2.9199 0 l0 14.111 l-3.3887 0 l-6.25 -10.088 l0 10.088 l-2.9199 0 l0 -14.111 l3.3496 0 l6.2891 10.029 l0 -10.029 z M365.136953125 5.888999999999999 l0 2.5781 l-3.3496 0 l0 11.533 l-2.9004 0 l0 -11.533 l-3.3691 0 l0 -2.5781 l9.6191 0 z"/></g>
			</g>
		</svg>
	